<svg width="21" height="20" viewBox="0 0 21 20" fill="none" xmlns="http://www.w3.org/2000/svg">
<path fill-rule="evenodd" clip-rule="evenodd" d="M12.0574 5.53441C8.81136 8.57834 5.80997 11.0688 5.3876 11.0688C4.18809 11.0688 2.24406 13.4754 2.24406 14.9604C2.24406 15.6985 1.71974 16.6294 1.07892 17.0297C-0.581406 18.0666 -0.379837 18.5065 2.06288 19.1811C5.61422 20.1616 8.26841 19.1071 9.47549 16.2362C9.8297 15.3927 12.5421 12.1734 15.5033 9.08226C18.5018 5.95095 20.8863 2.96178 20.8863 2.33377C20.8863 1.36787 19.3681 0 18.2962 0C18.1109 0 15.3035 2.49049 12.0574 5.53441ZM19.1386 2.39902C19.1386 2.7573 17.3163 4.92038 15.0897 7.20522C12.1617 10.2095 10.8643 11.1836 10.4041 10.7234C9.94388 10.2631 10.9436 8.93545 14.016 5.92706C18.2554 1.77625 19.1386 1.16805 19.1386 2.39902ZM9.65143 13.1771C9.09274 13.7358 7.43126 12.213 7.85362 11.5296C8.06451 11.1888 8.57892 11.3281 9.12362 11.8728C9.62696 12.3767 9.86465 12.9633 9.65143 13.1771ZM7.00423 13.7807C7.5903 14.3108 8.06975 15.0827 8.06975 15.4952C8.06975 16.5456 5.7453 18.0597 4.13275 18.0597C2.98159 18.0597 2.87323 17.896 3.38881 16.933C3.72029 16.3131 3.99177 15.286 3.99177 14.651C3.99177 13.6741 4.5621 13.0746 5.69345 12.8626C5.82861 12.8375 6.41817 13.2505 7.00423 13.7807Z" fill="white"/>
<path fill-rule="evenodd" clip-rule="evenodd" d="M12.0574 5.53441C8.81136 8.57834 5.80997 11.0688 5.3876 11.0688C4.18809 11.0688 2.24406 13.4754 2.24406 14.9604C2.24406 15.6985 1.71974 16.6294 1.07892 17.0297C-0.581406 18.0666 -0.379837 18.5065 2.06288 19.1811C5.61422 20.1616 8.26841 19.1071 9.47549 16.2362C9.8297 15.3927 12.5421 12.1734 15.5033 9.08226C18.5018 5.95095 20.8863 2.96178 20.8863 2.33377C20.8863 1.36787 19.3681 0 18.2962 0C18.1109 0 15.3035 2.49049 12.0574 5.53441ZM19.1386 2.39902C19.1386 2.7573 17.3163 4.92038 15.0897 7.20522C12.1617 10.2095 10.8643 11.1836 10.4041 10.7234C9.94388 10.2631 10.9436 8.93545 14.016 5.92706C18.2554 1.77625 19.1386 1.16805 19.1386 2.39902ZM9.65143 13.1771C9.09274 13.7358 7.43126 12.213 7.85362 11.5296C8.06451 11.1888 8.57892 11.3281 9.12362 11.8728C9.62696 12.3767 9.86465 12.9633 9.65143 13.1771ZM7.00423 13.7807C7.5903 14.3108 8.06975 15.0827 8.06975 15.4952C8.06975 16.5456 5.7453 18.0597 4.13275 18.0597C2.98159 18.0597 2.87323 17.896 3.38881 16.933C3.72029 16.3131 3.99177 15.286 3.99177 14.651C3.99177 13.6741 4.5621 13.0746 5.69345 12.8626C5.82861 12.8375 6.41817 13.2505 7.00423 13.7807Z" fill="white"/>
<path fill-rule="evenodd" clip-rule="evenodd" d="M12.0574 5.53441C8.81136 8.57834 5.80997 11.0688 5.3876 11.0688C4.18809 11.0688 2.24406 13.4754 2.24406 14.9604C2.24406 15.6985 1.71974 16.6294 1.07892 17.0297C-0.581406 18.0666 -0.379837 18.5065 2.06288 19.1811C5.61422 20.1616 8.26841 19.1071 9.47549 16.2362C9.8297 15.3927 12.5421 12.1734 15.5033 9.08226C18.5018 5.95095 20.8863 2.96178 20.8863 2.33377C20.8863 1.36787 19.3681 0 18.2962 0C18.1109 0 15.3035 2.49049 12.0574 5.53441ZM19.1386 2.39902C19.1386 2.7573 17.3163 4.92038 15.0897 7.20522C12.1617 10.2095 10.8643 11.1836 10.4041 10.7234C9.94388 10.2631 10.9436 8.93545 14.016 5.92706C18.2554 1.77625 19.1386 1.16805 19.1386 2.39902ZM9.65143 13.1771C9.09274 13.7358 7.43126 12.213 7.85362 11.5296C8.06451 11.1888 8.57892 11.3281 9.12362 11.8728C9.62696 12.3767 9.86465 12.9633 9.65143 13.1771ZM7.00423 13.7807C7.5903 14.3108 8.06975 15.0827 8.06975 15.4952C8.06975 16.5456 5.7453 18.0597 4.13275 18.0597C2.98159 18.0597 2.87323 17.896 3.38881 16.933C3.72029 16.3131 3.99177 15.286 3.99177 14.651C3.99177 13.6741 4.5621 13.0746 5.69345 12.8626C5.82861 12.8375 6.41817 13.2505 7.00423 13.7807Z" fill="white"/>
<path fill-rule="evenodd" clip-rule="evenodd" d="M12.0574 5.53441C8.81136 8.57834 5.80997 11.0688 5.3876 11.0688C4.18809 11.0688 2.24406 13.4754 2.24406 14.9604C2.24406 15.6985 1.71974 16.6294 1.07892 17.0297C-0.581406 18.0666 -0.379837 18.5065 2.06288 19.1811C5.61422 20.1616 8.26841 19.1071 9.47549 16.2362C9.8297 15.3927 12.5421 12.1734 15.5033 9.08226C18.5018 5.95095 20.8863 2.96178 20.8863 2.33377C20.8863 1.36787 19.3681 0 18.2962 0C18.1109 0 15.3035 2.49049 12.0574 5.53441ZM19.1386 2.39902C19.1386 2.7573 17.3163 4.92038 15.0897 7.20522C12.1617 10.2095 10.8643 11.1836 10.4041 10.7234C9.94388 10.2631 10.9436 8.93545 14.016 5.92706C18.2554 1.77625 19.1386 1.16805 19.1386 2.39902ZM9.65143 13.1771C9.09274 13.7358 7.43126 12.213 7.85362 11.5296C8.06451 11.1888 8.57892 11.3281 9.12362 11.8728C9.62696 12.3767 9.86465 12.9633 9.65143 13.1771ZM7.00423 13.7807C7.5903 14.3108 8.06975 15.0827 8.06975 15.4952C8.06975 16.5456 5.7453 18.0597 4.13275 18.0597C2.98159 18.0597 2.87323 17.896 3.38881 16.933C3.72029 16.3131 3.99177 15.286 3.99177 14.651C3.99177 13.6741 4.5621 13.0746 5.69345 12.8626C5.82861 12.8375 6.41817 13.2505 7.00423 13.7807Z" fill="white"/>
<path fill-rule="evenodd" clip-rule="evenodd" d="M12.0574 5.53441C8.81136 8.57834 5.80997 11.0688 5.3876 11.0688C4.18809 11.0688 2.24406 13.4754 2.24406 14.9604C2.24406 15.6985 1.71974 16.6294 1.07892 17.0297C-0.581406 18.0666 -0.379837 18.5065 2.06288 19.1811C5.61422 20.1616 8.26841 19.1071 9.47549 16.2362C9.8297 15.3927 12.5421 12.1734 15.5033 9.08226C18.5018 5.95095 20.8863 2.96178 20.8863 2.33377C20.8863 1.36787 19.3681 0 18.2962 0C18.1109 0 15.3035 2.49049 12.0574 5.53441ZM19.1386 2.39902C19.1386 2.7573 17.3163 4.92038 15.0897 7.20522C12.1617 10.2095 10.8643 11.1836 10.4041 10.7234C9.94388 10.2631 10.9436 8.93545 14.016 5.92706C18.2554 1.77625 19.1386 1.16805 19.1386 2.39902ZM9.65143 13.1771C9.09274 13.7358 7.43126 12.213 7.85362 11.5296C8.06451 11.1888 8.57892 11.3281 9.12362 11.8728C9.62696 12.3767 9.86465 12.9633 9.65143 13.1771ZM7.00423 13.7807C7.5903 14.3108 8.06975 15.0827 8.06975 15.4952C8.06975 16.5456 5.7453 18.0597 4.13275 18.0597C2.98159 18.0597 2.87323 17.896 3.38881 16.933C3.72029 16.3131 3.99177 15.286 3.99177 14.651C3.99177 13.6741 4.5621 13.0746 5.69345 12.8626C5.82861 12.8375 6.41817 13.2505 7.00423 13.7807Z" fill="white"/>
<path fill-rule="evenodd" clip-rule="evenodd" d="M12.0574 5.53441C8.81136 8.57834 5.80997 11.0688 5.3876 11.0688C4.18809 11.0688 2.24406 13.4754 2.24406 14.9604C2.24406 15.6985 1.71974 16.6294 1.07892 17.0297C-0.581406 18.0666 -0.379837 18.5065 2.06288 19.1811C5.61422 20.1616 8.26841 19.1071 9.47549 16.2362C9.8297 15.3927 12.5421 12.1734 15.5033 9.08226C18.5018 5.95095 20.8863 2.96178 20.8863 2.33377C20.8863 1.36787 19.3681 0 18.2962 0C18.1109 0 15.3035 2.49049 12.0574 5.53441ZM19.1386 2.39902C19.1386 2.7573 17.3163 4.92038 15.0897 7.20522C12.1617 10.2095 10.8643 11.1836 10.4041 10.7234C9.94388 10.2631 10.9436 8.93545 14.016 5.92706C18.2554 1.77625 19.1386 1.16805 19.1386 2.39902ZM9.65143 13.1771C9.09274 13.7358 7.43126 12.213 7.85362 11.5296C8.06451 11.1888 8.57892 11.3281 9.12362 11.8728C9.62696 12.3767 9.86465 12.9633 9.65143 13.1771ZM7.00423 13.7807C7.5903 14.3108 8.06975 15.0827 8.06975 15.4952C8.06975 16.5456 5.7453 18.0597 4.13275 18.0597C2.98159 18.0597 2.87323 17.896 3.38881 16.933C3.72029 16.3131 3.99177 15.286 3.99177 14.651C3.99177 13.6741 4.5621 13.0746 5.69345 12.8626C5.82861 12.8375 6.41817 13.2505 7.00423 13.7807Z" fill="white"/>
<path fill-rule="evenodd" clip-rule="evenodd" d="M12.0574 5.53441C8.81136 8.57834 5.80997 11.0688 5.3876 11.0688C4.18809 11.0688 2.24406 13.4754 2.24406 14.9604C2.24406 15.6985 1.71974 16.6294 1.07892 17.0297C-0.581406 18.0666 -0.379837 18.5065 2.06288 19.1811C5.61422 20.1616 8.26841 19.1071 9.47549 16.2362C9.8297 15.3927 12.5421 12.1734 15.5033 9.08226C18.5018 5.95095 20.8863 2.96178 20.8863 2.33377C20.8863 1.36787 19.3681 0 18.2962 0C18.1109 0 15.3035 2.49049 12.0574 5.53441ZM19.1386 2.39902C19.1386 2.7573 17.3163 4.92038 15.0897 7.20522C12.1617 10.2095 10.8643 11.1836 10.4041 10.7234C9.94388 10.2631 10.9436 8.93545 14.016 5.92706C18.2554 1.77625 19.1386 1.16805 19.1386 2.39902ZM9.65143 13.1771C9.09274 13.7358 7.43126 12.213 7.85362 11.5296C8.06451 11.1888 8.57892 11.3281 9.12362 11.8728C9.62696 12.3767 9.86465 12.9633 9.65143 13.1771ZM7.00423 13.7807C7.5903 14.3108 8.06975 15.0827 8.06975 15.4952C8.06975 16.5456 5.7453 18.0597 4.13275 18.0597C2.98159 18.0597 2.87323 17.896 3.38881 16.933C3.72029 16.3131 3.99177 15.286 3.99177 14.651C3.99177 13.6741 4.5621 13.0746 5.69345 12.8626C5.82861 12.8375 6.41817 13.2505 7.00423 13.7807Z" fill="white"/>
<path fill-rule="evenodd" clip-rule="evenodd" d="M12.0574 5.53441C8.81136 8.57834 5.80997 11.0688 5.3876 11.0688C4.18809 11.0688 2.24406 13.4754 2.24406 14.9604C2.24406 15.6985 1.71974 16.6294 1.07892 17.0297C-0.581406 18.0666 -0.379837 18.5065 2.06288 19.1811C5.61422 20.1616 8.26841 19.1071 9.47549 16.2362C9.8297 15.3927 12.5421 12.1734 15.5033 9.08226C18.5018 5.95095 20.8863 2.96178 20.8863 2.33377C20.8863 1.36787 19.3681 0 18.2962 0C18.1109 0 15.3035 2.49049 12.0574 5.53441ZM19.1386 2.39902C19.1386 2.7573 17.3163 4.92038 15.0897 7.20522C12.1617 10.2095 10.8643 11.1836 10.4041 10.7234C9.94388 10.2631 10.9436 8.93545 14.016 5.92706C18.2554 1.77625 19.1386 1.16805 19.1386 2.39902ZM9.65143 13.1771C9.09274 13.7358 7.43126 12.213 7.85362 11.5296C8.06451 11.1888 8.57892 11.3281 9.12362 11.8728C9.62696 12.3767 9.86465 12.9633 9.65143 13.1771ZM7.00423 13.7807C7.5903 14.3108 8.06975 15.0827 8.06975 15.4952C8.06975 16.5456 5.7453 18.0597 4.13275 18.0597C2.98159 18.0597 2.87323 17.896 3.38881 16.933C3.72029 16.3131 3.99177 15.286 3.99177 14.651C3.99177 13.6741 4.5621 13.0746 5.69345 12.8626C5.82861 12.8375 6.41817 13.2505 7.00423 13.7807Z" fill="white"/>
<path fill-rule="evenodd" clip-rule="evenodd" d="M12.0574 5.53441C8.81136 8.57834 5.80997 11.0688 5.3876 11.0688C4.18809 11.0688 2.24406 13.4754 2.24406 14.9604C2.24406 15.6985 1.71974 16.6294 1.07892 17.0297C-0.581406 18.0666 -0.379837 18.5065 2.06288 19.1811C5.61422 20.1616 8.26841 19.1071 9.47549 16.2362C9.8297 15.3927 12.5421 12.1734 15.5033 9.08226C18.5018 5.95095 20.8863 2.96178 20.8863 2.33377C20.8863 1.36787 19.3681 0 18.2962 0C18.1109 0 15.3035 2.49049 12.0574 5.53441ZM19.1386 2.39902C19.1386 2.7573 17.3163 4.92038 15.0897 7.20522C12.1617 10.2095 10.8643 11.1836 10.4041 10.7234C9.94388 10.2631 10.9436 8.93545 14.016 5.92706C18.2554 1.77625 19.1386 1.16805 19.1386 2.39902ZM9.65143 13.1771C9.09274 13.7358 7.43126 12.213 7.85362 11.5296C8.06451 11.1888 8.57892 11.3281 9.12362 11.8728C9.62696 12.3767 9.86465 12.9633 9.65143 13.1771ZM7.00423 13.7807C7.5903 14.3108 8.06975 15.0827 8.06975 15.4952C8.06975 16.5456 5.7453 18.0597 4.13275 18.0597C2.98159 18.0597 2.87323 17.896 3.38881 16.933C3.72029 16.3131 3.99177 15.286 3.99177 14.651C3.99177 13.6741 4.5621 13.0746 5.69345 12.8626C5.82861 12.8375 6.41817 13.2505 7.00423 13.7807Z" fill="white"/>
<path fill-rule="evenodd" clip-rule="evenodd" d="M12.0574 5.53441C8.81136 8.57834 5.80997 11.0688 5.3876 11.0688C4.18809 11.0688 2.24406 13.4754 2.24406 14.9604C2.24406 15.6985 1.71974 16.6294 1.07892 17.0297C-0.581406 18.0666 -0.379837 18.5065 2.06288 19.1811C5.61422 20.1616 8.26841 19.1071 9.47549 16.2362C9.8297 15.3927 12.5421 12.1734 15.5033 9.08226C18.5018 5.95095 20.8863 2.96178 20.8863 2.33377C20.8863 1.36787 19.3681 0 18.2962 0C18.1109 0 15.3035 2.49049 12.0574 5.53441ZM19.1386 2.39902C19.1386 2.7573 17.3163 4.92038 15.0897 7.20522C12.1617 10.2095 10.8643 11.1836 10.4041 10.7234C9.94388 10.2631 10.9436 8.93545 14.016 5.92706C18.2554 1.77625 19.1386 1.16805 19.1386 2.39902ZM9.65143 13.1771C9.09274 13.7358 7.43126 12.213 7.85362 11.5296C8.06451 11.1888 8.57892 11.3281 9.12362 11.8728C9.62696 12.3767 9.86465 12.9633 9.65143 13.1771ZM7.00423 13.7807C7.5903 14.3108 8.06975 15.0827 8.06975 15.4952C8.06975 16.5456 5.7453 18.0597 4.13275 18.0597C2.98159 18.0597 2.87323 17.896 3.38881 16.933C3.72029 16.3131 3.99177 15.286 3.99177 14.651C3.99177 13.6741 4.5621 13.0746 5.69345 12.8626C5.82861 12.8375 6.41817 13.2505 7.00423 13.7807Z" fill="white"/>
<path fill-rule="evenodd" clip-rule="evenodd" d="M12.0574 5.53441C8.81136 8.57834 5.80997 11.0688 5.3876 11.0688C4.18809 11.0688 2.24406 13.4754 2.24406 14.9604C2.24406 15.6985 1.71974 16.6294 1.07892 17.0297C-0.581406 18.0666 -0.379837 18.5065 2.06288 19.1811C5.61422 20.1616 8.26841 19.1071 9.47549 16.2362C9.8297 15.3927 12.5421 12.1734 15.5033 9.08226C18.5018 5.95095 20.8863 2.96178 20.8863 2.33377C20.8863 1.36787 19.3681 0 18.2962 0C18.1109 0 15.3035 2.49049 12.0574 5.53441ZM19.1386 2.39902C19.1386 2.7573 17.3163 4.92038 15.0897 7.20522C12.1617 10.2095 10.8643 11.1836 10.4041 10.7234C9.94388 10.2631 10.9436 8.93545 14.016 5.92706C18.2554 1.77625 19.1386 1.16805 19.1386 2.39902ZM9.65143 13.1771C9.09274 13.7358 7.43126 12.213 7.85362 11.5296C8.06451 11.1888 8.57892 11.3281 9.12362 11.8728C9.62696 12.3767 9.86465 12.9633 9.65143 13.1771ZM7.00423 13.7807C7.5903 14.3108 8.06975 15.0827 8.06975 15.4952C8.06975 16.5456 5.7453 18.0597 4.13275 18.0597C2.98159 18.0597 2.87323 17.896 3.38881 16.933C3.72029 16.3131 3.99177 15.286 3.99177 14.651C3.99177 13.6741 4.5621 13.0746 5.69345 12.8626C5.82861 12.8375 6.41817 13.2505 7.00423 13.7807Z" fill="white"/>
<path fill-rule="evenodd" clip-rule="evenodd" d="M12.0574 5.53441C8.81136 8.57834 5.80997 11.0688 5.3876 11.0688C4.18809 11.0688 2.24406 13.4754 2.24406 14.9604C2.24406 15.6985 1.71974 16.6294 1.07892 17.0297C-0.581406 18.0666 -0.379837 18.5065 2.06288 19.1811C5.61422 20.1616 8.26841 19.1071 9.47549 16.2362C9.8297 15.3927 12.5421 12.1734 15.5033 9.08226C18.5018 5.95095 20.8863 2.96178 20.8863 2.33377C20.8863 1.36787 19.3681 0 18.2962 0C18.1109 0 15.3035 2.49049 12.0574 5.53441ZM19.1386 2.39902C19.1386 2.7573 17.3163 4.92038 15.0897 7.20522C12.1617 10.2095 10.8643 11.1836 10.4041 10.7234C9.94388 10.2631 10.9436 8.93545 14.016 5.92706C18.2554 1.77625 19.1386 1.16805 19.1386 2.39902ZM9.65143 13.1771C9.09274 13.7358 7.43126 12.213 7.85362 11.5296C8.06451 11.1888 8.57892 11.3281 9.12362 11.8728C9.62696 12.3767 9.86465 12.9633 9.65143 13.1771ZM7.00423 13.7807C7.5903 14.3108 8.06975 15.0827 8.06975 15.4952C8.06975 16.5456 5.7453 18.0597 4.13275 18.0597C2.98159 18.0597 2.87323 17.896 3.38881 16.933C3.72029 16.3131 3.99177 15.286 3.99177 14.651C3.99177 13.6741 4.5621 13.0746 5.69345 12.8626C5.82861 12.8375 6.41817 13.2505 7.00423 13.7807Z" fill="white"/>
<path fill-rule="evenodd" clip-rule="evenodd" d="M12.0574 5.53441C8.81136 8.57834 5.80997 11.0688 5.3876 11.0688C4.18809 11.0688 2.24406 13.4754 2.24406 14.9604C2.24406 15.6985 1.71974 16.6294 1.07892 17.0297C-0.581406 18.0666 -0.379837 18.5065 2.06288 19.1811C5.61422 20.1616 8.26841 19.1071 9.47549 16.2362C9.8297 15.3927 12.5421 12.1734 15.5033 9.08226C18.5018 5.95095 20.8863 2.96178 20.8863 2.33377C20.8863 1.36787 19.3681 0 18.2962 0C18.1109 0 15.3035 2.49049 12.0574 5.53441ZM19.1386 2.39902C19.1386 2.7573 17.3163 4.92038 15.0897 7.20522C12.1617 10.2095 10.8643 11.1836 10.4041 10.7234C9.94388 10.2631 10.9436 8.93545 14.016 5.92706C18.2554 1.77625 19.1386 1.16805 19.1386 2.39902ZM9.65143 13.1771C9.09274 13.7358 7.43126 12.213 7.85362 11.5296C8.06451 11.1888 8.57892 11.3281 9.12362 11.8728C9.62696 12.3767 9.86465 12.9633 9.65143 13.1771ZM7.00423 13.7807C7.5903 14.3108 8.06975 15.0827 8.06975 15.4952C8.06975 16.5456 5.7453 18.0597 4.13275 18.0597C2.98159 18.0597 2.87323 17.896 3.38881 16.933C3.72029 16.3131 3.99177 15.286 3.99177 14.651C3.99177 13.6741 4.5621 13.0746 5.69345 12.8626C5.82861 12.8375 6.41817 13.2505 7.00423 13.7807Z" fill="white"/>
<path fill-rule="evenodd" clip-rule="evenodd" d="M12.0574 5.53441C8.81136 8.57834 5.80997 11.0688 5.3876 11.0688C4.18809 11.0688 2.24406 13.4754 2.24406 14.9604C2.24406 15.6985 1.71974 16.6294 1.07892 17.0297C-0.581406 18.0666 -0.379837 18.5065 2.06288 19.1811C5.61422 20.1616 8.26841 19.1071 9.47549 16.2362C9.8297 15.3927 12.5421 12.1734 15.5033 9.08226C18.5018 5.95095 20.8863 2.96178 20.8863 2.33377C20.8863 1.36787 19.3681 0 18.2962 0C18.1109 0 15.3035 2.49049 12.0574 5.53441ZM19.1386 2.39902C19.1386 2.7573 17.3163 4.92038 15.0897 7.20522C12.1617 10.2095 10.8643 11.1836 10.4041 10.7234C9.94388 10.2631 10.9436 8.93545 14.016 5.92706C18.2554 1.77625 19.1386 1.16805 19.1386 2.39902ZM9.65143 13.1771C9.09274 13.7358 7.43126 12.213 7.85362 11.5296C8.06451 11.1888 8.57892 11.3281 9.12362 11.8728C9.62696 12.3767 9.86465 12.9633 9.65143 13.1771ZM7.00423 13.7807C7.5903 14.3108 8.06975 15.0827 8.06975 15.4952C8.06975 16.5456 5.7453 18.0597 4.13275 18.0597C2.98159 18.0597 2.87323 17.896 3.38881 16.933C3.72029 16.3131 3.99177 15.286 3.99177 14.651C3.99177 13.6741 4.5621 13.0746 5.69345 12.8626C5.82861 12.8375 6.41817 13.2505 7.00423 13.7807Z" fill="white"/>
<path fill-rule="evenodd" clip-rule="evenodd" d="M12.0574 5.53441C8.81136 8.57834 5.80997 11.0688 5.3876 11.0688C4.18809 11.0688 2.24406 13.4754 2.24406 14.9604C2.24406 15.6985 1.71974 16.6294 1.07892 17.0297C-0.581406 18.0666 -0.379837 18.5065 2.06288 19.1811C5.61422 20.1616 8.26841 19.1071 9.47549 16.2362C9.8297 15.3927 12.5421 12.1734 15.5033 9.08226C18.5018 5.95095 20.8863 2.96178 20.8863 2.33377C20.8863 1.36787 19.3681 0 18.2962 0C18.1109 0 15.3035 2.49049 12.0574 5.53441ZM19.1386 2.39902C19.1386 2.7573 17.3163 4.92038 15.0897 7.20522C12.1617 10.2095 10.8643 11.1836 10.4041 10.7234C9.94388 10.2631 10.9436 8.93545 14.016 5.92706C18.2554 1.77625 19.1386 1.16805 19.1386 2.39902ZM9.65143 13.1771C9.09274 13.7358 7.43126 12.213 7.85362 11.5296C8.06451 11.1888 8.57892 11.3281 9.12362 11.8728C9.62696 12.3767 9.86465 12.9633 9.65143 13.1771ZM7.00423 13.7807C7.5903 14.3108 8.06975 15.0827 8.06975 15.4952C8.06975 16.5456 5.7453 18.0597 4.13275 18.0597C2.98159 18.0597 2.87323 17.896 3.38881 16.933C3.72029 16.3131 3.99177 15.286 3.99177 14.651C3.99177 13.6741 4.5621 13.0746 5.69345 12.8626C5.82861 12.8375 6.41817 13.2505 7.00423 13.7807Z" fill="white"/>
<path fill-rule="evenodd" clip-rule="evenodd" d="M12.0574 5.53441C8.81136 8.57834 5.80997 11.0688 5.3876 11.0688C4.18809 11.0688 2.24406 13.4754 2.24406 14.9604C2.24406 15.6985 1.71974 16.6294 1.07892 17.0297C-0.581406 18.0666 -0.379837 18.5065 2.06288 19.1811C5.61422 20.1616 8.26841 19.1071 9.47549 16.2362C9.8297 15.3927 12.5421 12.1734 15.5033 9.08226C18.5018 5.95095 20.8863 2.96178 20.8863 2.33377C20.8863 1.36787 19.3681 0 18.2962 0C18.1109 0 15.3035 2.49049 12.0574 5.53441ZM19.1386 2.39902C19.1386 2.7573 17.3163 4.92038 15.0897 7.20522C12.1617 10.2095 10.8643 11.1836 10.4041 10.7234C9.94388 10.2631 10.9436 8.93545 14.016 5.92706C18.2554 1.77625 19.1386 1.16805 19.1386 2.39902ZM9.65143 13.1771C9.09274 13.7358 7.43126 12.213 7.85362 11.5296C8.06451 11.1888 8.57892 11.3281 9.12362 11.8728C9.62696 12.3767 9.86465 12.9633 9.65143 13.1771ZM7.00423 13.7807C7.5903 14.3108 8.06975 15.0827 8.06975 15.4952C8.06975 16.5456 5.7453 18.0597 4.13275 18.0597C2.98159 18.0597 2.87323 17.896 3.38881 16.933C3.72029 16.3131 3.99177 15.286 3.99177 14.651C3.99177 13.6741 4.5621 13.0746 5.69345 12.8626C5.82861 12.8375 6.41817 13.2505 7.00423 13.7807Z" fill="white"/>
</svg>
